# xmcd
#
# Track frame offsets: 
#        150
#        16994
#        36986
#        56810
#        60875
#        89431
#        109977
#        126781
#        140881
#        156084
#        181137
#        200589
#
# Disc length: 2947 seconds
#
# Revision: 2
# Processed by: cddbd v1.5.2PL0 Copyright (c) Steve Scherf et al.
# Submitted via: ExactAudioCopy v1.0b3
#
DISCID=a90b810c
DTITLE=甲斐バンド - マイ・ジェネレーション (紙ジャケット仕様) TOCT-26457
DYEAR=2007
DGENRE=JPop
TTITLE0=三つ数えろ
TTITLE1=感触 (タッチ) 
TTITLE2=港からやってきた女
TTITLE3=街路
TTITLE4=100万$ナイト
TTITLE5=異邦人の夜 (シスコ・ナイト) 
TTITLE6=特効薬
TTITLE7=噂
TTITLE8=グルーピー
TTITLE9=熱狂（ステージ）
TTITLE10=荒馬 (Bonus Track)
TTITLE11=安奈 (TV MIX) (Bonus Track)
EXTD=YEAR: 1979
EXTT0=
EXTT1=
EXTT2=
EXTT3=
EXTT4=
EXTT5=
EXTT6=
EXTT7=
EXTT8=
EXTT9=
EXTT10=
EXTT11=
PLAYORDER=
